G75*
%MOIN*%
%OFA0B0*%
%FSLAX26Y26*%
%IPPOS*%
%LPD*%
%AMOC8*
5,1,8,0,0,1.08239X$1,22.5*
%
%ADD10R,0.047370X0.051307*%
%ADD11R,0.051307X0.047370*%
%ADD12R,0.039496X0.031622*%
%ADD13OC8,0.060000*%
%ADD14R,0.047370X0.063118*%
%ADD15R,0.078866X0.114299*%
%ADD16C,0.094000*%
%ADD17C,0.068000*%
%ADD18R,0.047370X0.035559*%
%ADD19R,0.023748X0.067055*%
%ADD20C,0.139000*%
%ADD21R,0.126110X0.043433*%
%ADD22C,0.060000*%
%ADD23R,0.067055X0.059181*%
%ADD24C,0.047622*%
%ADD25C,0.043685*%
D10*
X00766535Y01186220D03*
X00833465Y01186220D03*
X00709055Y01509843D03*
X00709055Y01576772D03*
X00461024Y01584252D03*
X00461024Y01651181D03*
D11*
X00421654Y01506693D03*
X00421654Y01439764D03*
X00709055Y01631102D03*
X00709055Y01698031D03*
X01121654Y01686220D03*
X01188583Y01686220D03*
X01241732Y01686220D03*
X01308661Y01686220D03*
X01367717Y01501181D03*
X01434646Y01501181D03*
X01331890Y01038976D03*
X01331890Y00972047D03*
X01134252Y00953150D03*
X01134252Y00886220D03*
X01039764Y00885827D03*
X01039764Y00952756D03*
X00847638Y00979134D03*
X00847638Y01046063D03*
X00630315Y00950787D03*
X00630315Y00883858D03*
X00535827Y00881496D03*
X00535827Y00948425D03*
X00437402Y00904331D03*
X00437402Y00837402D03*
X00331102Y00833858D03*
X00331102Y00900787D03*
X00331890Y00966535D03*
X00331890Y01033465D03*
X00134252Y00941732D03*
X00134252Y00874803D03*
X00035827Y00876378D03*
X00035827Y00943307D03*
D12*
X00305118Y01661417D03*
X00403543Y01661417D03*
D13*
X01740945Y01357480D03*
X01740945Y01257480D03*
D14*
X01275984Y00962205D03*
X01201181Y00962205D03*
X01238583Y00875591D03*
X00774803Y00966142D03*
X00700000Y00966142D03*
X00737402Y00879528D03*
X00273622Y00958268D03*
X00198819Y00958268D03*
X00236220Y00871654D03*
D15*
X01566535Y00907874D03*
X01739764Y00907874D03*
X01738976Y01053543D03*
X01565748Y01053543D03*
D16*
X01742913Y00648819D03*
X01742913Y00451969D03*
X01742913Y00255118D03*
D17*
X01275984Y01797559D02*
X01275984Y01857559D01*
X01175984Y01857559D02*
X01175984Y01797559D01*
X01075984Y01797559D02*
X01075984Y01857559D01*
X00975984Y01857559D02*
X00975984Y01797559D01*
X00875984Y01797559D02*
X00875984Y01857559D01*
D18*
X00642126Y01579921D03*
X00642126Y01501969D03*
X00547638Y01501969D03*
X00547638Y01540945D03*
X00547638Y01579921D03*
D19*
G36*
X00831116Y01404679D02*
X00814323Y01421472D01*
X00861736Y01468885D01*
X00878529Y01452092D01*
X00831116Y01404679D01*
G37*
G36*
X00849211Y01386584D02*
X00832418Y01403377D01*
X00879831Y01450790D01*
X00896624Y01433997D01*
X00849211Y01386584D01*
G37*
G36*
X00867306Y01368489D02*
X00850513Y01385282D01*
X00897926Y01432695D01*
X00914719Y01415902D01*
X00867306Y01368489D01*
G37*
G36*
X00885401Y01350393D02*
X00868608Y01367186D01*
X00916021Y01414599D01*
X00932814Y01397806D01*
X00885401Y01350393D01*
G37*
G36*
X00903497Y01332298D02*
X00886704Y01349091D01*
X00934117Y01396504D01*
X00950910Y01379711D01*
X00903497Y01332298D01*
G37*
G36*
X00921592Y01314203D02*
X00904799Y01330996D01*
X00952212Y01378409D01*
X00969005Y01361616D01*
X00921592Y01314203D01*
G37*
G36*
X00939687Y01296108D02*
X00922894Y01312901D01*
X00970307Y01360314D01*
X00987100Y01343521D01*
X00939687Y01296108D01*
G37*
G36*
X00957782Y01278012D02*
X00940989Y01294805D01*
X00988402Y01342218D01*
X01005195Y01325425D01*
X00957782Y01278012D01*
G37*
G36*
X00975878Y01259917D02*
X00959085Y01276710D01*
X01006498Y01324123D01*
X01023291Y01307330D01*
X00975878Y01259917D01*
G37*
G36*
X00993973Y01241822D02*
X00977180Y01258615D01*
X01024593Y01306028D01*
X01041386Y01289235D01*
X00993973Y01241822D01*
G37*
G36*
X01012068Y01223726D02*
X00995275Y01240519D01*
X01042688Y01287932D01*
X01059481Y01271139D01*
X01012068Y01223726D01*
G37*
G36*
X01030163Y01205631D02*
X01013370Y01222424D01*
X01060783Y01269837D01*
X01077576Y01253044D01*
X01030163Y01205631D01*
G37*
G36*
X01048259Y01187536D02*
X01031466Y01204329D01*
X01078879Y01251742D01*
X01095672Y01234949D01*
X01048259Y01187536D01*
G37*
G36*
X01066354Y01169441D02*
X01049561Y01186234D01*
X01096974Y01233647D01*
X01113767Y01216854D01*
X01066354Y01169441D01*
G37*
G36*
X01268186Y01371272D02*
X01251393Y01388065D01*
X01298806Y01435478D01*
X01315599Y01418685D01*
X01268186Y01371272D01*
G37*
G36*
X01250090Y01389368D02*
X01233297Y01406161D01*
X01280710Y01453574D01*
X01297503Y01436781D01*
X01250090Y01389368D01*
G37*
G36*
X01231995Y01407463D02*
X01215202Y01424256D01*
X01262615Y01471669D01*
X01279408Y01454876D01*
X01231995Y01407463D01*
G37*
G36*
X01213900Y01425558D02*
X01197107Y01442351D01*
X01244520Y01489764D01*
X01261313Y01472971D01*
X01213900Y01425558D01*
G37*
G36*
X01195805Y01443653D02*
X01179012Y01460446D01*
X01226425Y01507859D01*
X01243218Y01491066D01*
X01195805Y01443653D01*
G37*
G36*
X01177709Y01461749D02*
X01160916Y01478542D01*
X01208329Y01525955D01*
X01225122Y01509162D01*
X01177709Y01461749D01*
G37*
G36*
X01159614Y01479844D02*
X01142821Y01496637D01*
X01190234Y01544050D01*
X01207027Y01527257D01*
X01159614Y01479844D01*
G37*
G36*
X01141519Y01497939D02*
X01124726Y01514732D01*
X01172139Y01562145D01*
X01188932Y01545352D01*
X01141519Y01497939D01*
G37*
G36*
X01123424Y01516034D02*
X01106631Y01532827D01*
X01154044Y01580240D01*
X01170837Y01563447D01*
X01123424Y01516034D01*
G37*
G36*
X01105328Y01534130D02*
X01088535Y01550923D01*
X01135948Y01598336D01*
X01152741Y01581543D01*
X01105328Y01534130D01*
G37*
G36*
X01087233Y01552225D02*
X01070440Y01569018D01*
X01117853Y01616431D01*
X01134646Y01599638D01*
X01087233Y01552225D01*
G37*
G36*
X01069138Y01570320D02*
X01052345Y01587113D01*
X01099758Y01634526D01*
X01116551Y01617733D01*
X01069138Y01570320D01*
G37*
G36*
X01051042Y01588415D02*
X01034249Y01605208D01*
X01081662Y01652621D01*
X01098455Y01635828D01*
X01051042Y01588415D01*
G37*
G36*
X01032947Y01606511D02*
X01016154Y01623304D01*
X01063567Y01670717D01*
X01080360Y01653924D01*
X01032947Y01606511D01*
G37*
D20*
X00086614Y01801807D03*
X00086614Y01284807D03*
D21*
X00222441Y01425197D03*
X00222441Y01503937D03*
X00222441Y01582677D03*
X00222441Y01661417D03*
D22*
X00036220Y00170882D02*
X00036220Y00118882D01*
X00136220Y00118882D02*
X00136220Y00170882D01*
X00236220Y00170882D02*
X00236220Y00118882D01*
X00336220Y00118882D02*
X00336220Y00170882D01*
X00436220Y00170882D02*
X00436220Y00118882D01*
X00540157Y00122819D02*
X00540157Y00174819D01*
X00640157Y00174819D02*
X00640157Y00122819D01*
X00740157Y00122819D02*
X00740157Y00174819D01*
X00840157Y00174819D02*
X00840157Y00122819D01*
X00940157Y00122819D02*
X00940157Y00174819D01*
X01040157Y00174819D02*
X01040157Y00122819D01*
X01140157Y00122819D02*
X01140157Y00174819D01*
X01240157Y00174819D02*
X01240157Y00122819D01*
X01340157Y00122819D02*
X01340157Y00174819D01*
X01440157Y00174819D02*
X01440157Y00122819D01*
X01440157Y00722819D02*
X01440157Y00774819D01*
X01340157Y00774819D02*
X01340157Y00722819D01*
X01240157Y00722819D02*
X01240157Y00774819D01*
X01140157Y00774819D02*
X01140157Y00722819D01*
X01040157Y00722819D02*
X01040157Y00774819D01*
X00940157Y00774819D02*
X00940157Y00722819D01*
X00840157Y00722819D02*
X00840157Y00774819D01*
X00740157Y00774819D02*
X00740157Y00722819D01*
X00640157Y00722819D02*
X00640157Y00774819D01*
X00540157Y00774819D02*
X00540157Y00722819D01*
X00436220Y00718882D02*
X00436220Y00770882D01*
X00336220Y00770882D02*
X00336220Y00718882D01*
X00236220Y00718882D02*
X00236220Y00770882D01*
X00136220Y00770882D02*
X00136220Y00718882D01*
X00036220Y00718882D02*
X00036220Y00770882D01*
D23*
X00598425Y01663386D03*
X00598425Y01738189D03*
D24*
X00496063Y01543307D03*
X00314961Y01425197D03*
X00704724Y01452756D03*
X01200787Y01027559D03*
X00200787Y01015748D03*
D25*
X00381890Y01149606D03*
X00700787Y01027559D03*
X00858268Y01098425D03*
X00712598Y01181102D03*
X01145669Y01204724D03*
X01177165Y01173228D03*
X01326772Y01094488D03*
X01389764Y01224409D03*
X01326772Y01275591D03*
X01523622Y01224409D03*
X01381890Y01551181D03*
X01212598Y01649606D03*
X01051181Y01696850D03*
X00984252Y01527559D03*
X00937008Y01527559D03*
X00755906Y01712598D03*
X00598425Y01555118D03*
X00842520Y00618110D03*
X00645669Y00574803D03*
X00543307Y00535433D03*
X01043307Y00535433D03*
X01141732Y00578740D03*
X01338583Y00622047D03*
X01342520Y00043307D03*
X01141732Y00011811D03*
X01047244Y-00027559D03*
X00842520Y00043307D03*
X00645669Y00003937D03*
X00547244Y-00027559D03*
M02*
