G75*
%MOIN*%
%OFA0B0*%
%FSLAX26Y26*%
%IPPOS*%
%LPD*%
%AMOC8*
5,1,8,0,0,1.08239X$1,22.5*
%
%ADD10C,0.000000*%
%ADD11C,0.004000*%
%ADD12R,0.023622X0.043307*%
%ADD13C,0.020000*%
%ADD14C,0.005000*%
%ADD15C,0.008000*%
%ADD16C,0.002000*%
%ADD17C,0.006000*%
%ADD18C,0.016819*%
D10*
X-00047244Y-00070866D02*
X-00051181Y01944882D01*
X01909449Y01944882D01*
X01909449Y-00070866D01*
X-00047244Y-00070866D01*
D11*
X00566725Y00782583D02*
X00566725Y00805602D01*
X00574398Y00813276D01*
X00589744Y00813276D01*
X00597417Y00805602D01*
X00597417Y00782583D01*
X00597417Y00797929D02*
X00612764Y00813276D01*
X00612764Y00828622D02*
X00612764Y00859315D01*
X00612764Y00874661D02*
X00612764Y00905354D01*
X00612764Y00890008D02*
X00566725Y00890008D01*
X00582071Y00874661D01*
X00566725Y00843968D02*
X00612764Y00843968D01*
X00582071Y00828622D02*
X00566725Y00843968D01*
X00506465Y00852228D02*
X00491118Y00836882D01*
X00491118Y00844555D02*
X00491118Y00821536D01*
X00506465Y00821536D02*
X00460425Y00821536D01*
X00460425Y00844555D01*
X00468099Y00852228D01*
X00483445Y00852228D01*
X00491118Y00844555D01*
X00483445Y00867575D02*
X00483445Y00898268D01*
X00506465Y00890594D02*
X00460425Y00890594D01*
X00483445Y00867575D01*
X00476173Y00944370D02*
X00476173Y00967390D01*
X00483847Y00975063D01*
X00499193Y00975063D01*
X00506866Y00967390D01*
X00506866Y00944370D01*
X00506866Y00959717D02*
X00522213Y00975063D01*
X00514539Y00990409D02*
X00499193Y00990409D01*
X00499193Y01013429D01*
X00506866Y01021102D01*
X00514539Y01021102D01*
X00522213Y01013429D01*
X00522213Y00998083D01*
X00514539Y00990409D01*
X00499193Y00990409D02*
X00483847Y01005756D01*
X00476173Y01021102D01*
X00412764Y01017197D02*
X00366725Y01017197D01*
X00382071Y01001850D01*
X00389744Y00986504D02*
X00397417Y00978831D01*
X00397417Y00955811D01*
X00397417Y00971157D02*
X00412764Y00986504D01*
X00412764Y01001850D02*
X00412764Y01032543D01*
X00405091Y01047890D02*
X00412764Y01055563D01*
X00412764Y01070909D01*
X00405091Y01078582D01*
X00397417Y01078582D01*
X00389744Y01070909D01*
X00389744Y01063236D01*
X00389744Y01070909D02*
X00382071Y01078582D01*
X00374398Y01078582D01*
X00366725Y01070909D01*
X00366725Y01055563D01*
X00374398Y01047890D01*
X00374398Y00986504D02*
X00389744Y00986504D01*
X00374398Y00986504D02*
X00366725Y00978831D01*
X00366725Y00955811D01*
X00412764Y00955811D01*
X00396429Y00898661D02*
X00381083Y00898661D01*
X00373410Y00890988D01*
X00373410Y00883315D01*
X00381083Y00867969D01*
X00358063Y00867969D01*
X00358063Y00898661D01*
X00396429Y00898661D02*
X00404102Y00890988D01*
X00404102Y00875642D01*
X00396429Y00867969D01*
X00404102Y00852622D02*
X00388756Y00837276D01*
X00388756Y00844949D02*
X00388756Y00821929D01*
X00404102Y00821929D02*
X00358063Y00821929D01*
X00358063Y00844949D01*
X00365736Y00852622D01*
X00381083Y00852622D01*
X00388756Y00844949D01*
X00274252Y00898260D02*
X00243559Y00898260D01*
X00258905Y00898260D02*
X00258905Y00944299D01*
X00243559Y00928953D01*
X00228213Y00936626D02*
X00228213Y00905933D01*
X00220539Y00898260D01*
X00205193Y00898260D01*
X00197520Y00905933D01*
X00197520Y00936626D01*
X00205193Y00944299D01*
X00220539Y00944299D01*
X00228213Y00936626D01*
X00212866Y00913606D02*
X00228213Y00898260D01*
X00132449Y00965236D02*
X00086410Y00965236D01*
X00086410Y00988256D01*
X00094083Y00995929D01*
X00109429Y00995929D01*
X00117102Y00988256D01*
X00117102Y00965236D01*
X00117102Y00980583D02*
X00132449Y00995929D01*
X00124776Y01011276D02*
X00132449Y01018949D01*
X00132449Y01034295D01*
X00124776Y01041968D01*
X00094083Y01041968D01*
X00086410Y01034295D01*
X00086410Y01018949D01*
X00094083Y01011276D01*
X00101756Y01011276D01*
X00109429Y01018949D01*
X00109429Y01041968D01*
X-00001209Y00937244D02*
X-00008882Y00937244D01*
X-00016555Y00929571D01*
X-00016555Y00921898D01*
X-00016555Y00929571D02*
X-00024228Y00937244D01*
X-00031901Y00937244D01*
X-00039575Y00929571D01*
X-00039575Y00914224D01*
X-00031901Y00906551D01*
X-00031901Y00891205D02*
X-00016555Y00891205D01*
X-00008882Y00883531D01*
X-00008882Y00860512D01*
X-00008882Y00875858D02*
X00006465Y00891205D01*
X-00001209Y00906551D02*
X00006465Y00914224D01*
X00006465Y00929571D01*
X-00001209Y00937244D01*
X-00031901Y00891205D02*
X-00039575Y00883531D01*
X-00039575Y00860512D01*
X00006465Y00860512D01*
X00476173Y00944370D02*
X00522213Y00944370D01*
X00694764Y00940563D02*
X00694764Y00909870D01*
X00702437Y00902197D01*
X00717783Y00902197D01*
X00725457Y00909870D01*
X00725457Y00940563D01*
X00717783Y00948236D01*
X00702437Y00948236D01*
X00694764Y00940563D01*
X00710110Y00917543D02*
X00725457Y00902197D01*
X00740803Y00902197D02*
X00771496Y00932890D01*
X00771496Y00940563D01*
X00763823Y00948236D01*
X00748476Y00948236D01*
X00740803Y00940563D01*
X00740803Y00902197D02*
X00771496Y00902197D01*
X00898221Y00929039D02*
X00898221Y00952059D01*
X00905894Y00959732D01*
X00921240Y00959732D01*
X00928914Y00952059D01*
X00928914Y00929039D01*
X00944260Y00929039D02*
X00898221Y00929039D01*
X00928914Y00944386D02*
X00944260Y00959732D01*
X00944260Y00975079D02*
X00944260Y01005772D01*
X00944260Y01021118D02*
X00913567Y01051811D01*
X00905894Y01051811D01*
X00898221Y01044138D01*
X00898221Y01028791D01*
X00905894Y01021118D01*
X00898221Y00990425D02*
X00944260Y00990425D01*
X00944260Y01021118D02*
X00944260Y01051811D01*
X00898221Y00990425D02*
X00913567Y00975079D01*
X00952551Y00934882D02*
X00960225Y00934882D01*
X00990917Y00904189D01*
X00998591Y00904189D01*
X00998591Y00888843D02*
X00983244Y00873496D01*
X00983244Y00881169D02*
X00983244Y00858150D01*
X00998591Y00858150D02*
X00952551Y00858150D01*
X00952551Y00881169D01*
X00960225Y00888843D01*
X00975571Y00888843D01*
X00983244Y00881169D01*
X00952551Y00904189D02*
X00952551Y00934882D01*
X01117906Y01012087D02*
X01117906Y01035106D01*
X01125579Y01042780D01*
X01140925Y01042780D01*
X01148599Y01035106D01*
X01148599Y01012087D01*
X01163945Y01012087D02*
X01117906Y01012087D01*
X01148599Y01027433D02*
X01163945Y01042780D01*
X01156272Y01058126D02*
X01163945Y01065799D01*
X01163945Y01081146D01*
X01156272Y01088819D01*
X01148599Y01088819D01*
X01140925Y01081146D01*
X01140925Y01065799D01*
X01133252Y01058126D01*
X01125579Y01058126D01*
X01117906Y01065799D01*
X01117906Y01081146D01*
X01125579Y01088819D01*
X01133252Y01088819D01*
X01140925Y01081146D01*
X01140925Y01065799D02*
X01148599Y01058126D01*
X01156272Y01058126D01*
X01199681Y00944299D02*
X01215028Y00944299D01*
X01222701Y00936626D01*
X01222701Y00905933D01*
X01215028Y00898260D01*
X01199681Y00898260D01*
X01192008Y00905933D01*
X01192008Y00936626D01*
X01199681Y00944299D01*
X01207354Y00913606D02*
X01222701Y00898260D01*
X01238047Y00905933D02*
X01245720Y00898260D01*
X01261067Y00898260D01*
X01268740Y00905933D01*
X01268740Y00913606D01*
X01261067Y00921279D01*
X01253394Y00921279D01*
X01261067Y00921279D02*
X01268740Y00928953D01*
X01268740Y00936626D01*
X01261067Y00944299D01*
X01245720Y00944299D01*
X01238047Y00936626D01*
X01386410Y00925890D02*
X01386410Y00948909D01*
X01394083Y00956583D01*
X01409429Y00956583D01*
X01417102Y00948909D01*
X01417102Y00925890D01*
X01417102Y00941236D02*
X01432449Y00956583D01*
X01432449Y00971929D02*
X01432449Y01002622D01*
X01432449Y00987275D02*
X01386410Y00987275D01*
X01401756Y00971929D01*
X01394083Y01017968D02*
X01386410Y01025641D01*
X01386410Y01040988D01*
X01394083Y01048661D01*
X01424776Y01017968D01*
X01432449Y01025641D01*
X01432449Y01040988D01*
X01424776Y01048661D01*
X01394083Y01048661D01*
X01394083Y01017968D02*
X01424776Y01017968D01*
X01432449Y00925890D02*
X01386410Y00925890D01*
X01597079Y00845874D02*
X01597079Y00799835D01*
X01597079Y00815181D02*
X01620098Y00815181D01*
X01627772Y00822854D01*
X01627772Y00838201D01*
X01620098Y00845874D01*
X01597079Y00845874D01*
X01612425Y00815181D02*
X01627772Y00799835D01*
X01643118Y00799835D02*
X01673811Y00799835D01*
X01658464Y00799835D02*
X01658464Y00845874D01*
X01643118Y00830527D01*
X01645866Y01126606D02*
X01645866Y01172646D01*
X01630520Y01157299D01*
X01615173Y01149626D02*
X01607500Y01141953D01*
X01584480Y01141953D01*
X01599827Y01141953D02*
X01615173Y01126606D01*
X01630520Y01126606D02*
X01661212Y01126606D01*
X01676559Y01134279D02*
X01684232Y01126606D01*
X01699578Y01126606D01*
X01707252Y01134279D01*
X01707252Y01141953D01*
X01699578Y01149626D01*
X01676559Y01149626D01*
X01676559Y01134279D01*
X01676559Y01149626D02*
X01691905Y01164972D01*
X01707252Y01172646D01*
X01615173Y01164972D02*
X01615173Y01149626D01*
X01615173Y01164972D02*
X01607500Y01172646D01*
X01584480Y01172646D01*
X01584480Y01126606D01*
X01211960Y01325159D02*
X01206534Y01319733D01*
X01195682Y01319733D01*
X01184830Y01330585D01*
X01184831Y01341436D01*
X01190256Y01346862D01*
X01201108Y01346862D01*
X01211960Y01336011D01*
X01211960Y01325159D01*
X01195682Y01319733D02*
X01195682Y01308882D01*
X01190256Y01303456D01*
X01179405Y01303456D01*
X01168553Y01314307D01*
X01168553Y01325159D01*
X01173979Y01330585D01*
X01184830Y01330585D01*
X01173979Y01352288D02*
X01130573Y01352288D01*
X01152276Y01330585D01*
X01173979Y01352288D02*
X01179405Y01357714D01*
X01179405Y01368565D01*
X01168553Y01379417D01*
X01157702Y01379417D01*
X01141424Y01406546D02*
X01119721Y01406546D01*
X01119721Y01428249D02*
X01108870Y01439101D01*
X01114296Y01433675D02*
X01087167Y01406546D01*
X01076315Y01406546D01*
X01070889Y01411972D01*
X01070889Y01422823D01*
X01060038Y01455378D02*
X01049186Y01466229D01*
X01038335Y01477081D02*
X01016632Y01498784D01*
X01049186Y01498784D01*
X01016632Y01466230D01*
X01032909Y01449952D02*
X01065464Y01482507D01*
X01087167Y01460804D01*
X01141424Y01406546D02*
X01108870Y01373991D01*
X01119721Y01363140D02*
X01098018Y01384843D01*
X00989503Y01493359D02*
X00967800Y01515062D01*
X01011206Y01515062D01*
X01016632Y01520487D01*
X01016632Y01531339D01*
X01005780Y01542191D01*
X00994929Y01542191D01*
X00984077Y01553042D02*
X00984077Y01563894D01*
X00973226Y01574745D01*
X00962374Y01574745D01*
X00940671Y01553042D01*
X00940671Y01542191D01*
X00951522Y01531339D01*
X00962374Y01531339D01*
X00924394Y01558468D02*
X00913542Y01569320D01*
X00918968Y01563894D02*
X00951523Y01596449D01*
X00946097Y01601874D02*
X00956948Y01591023D01*
X00929820Y01607300D02*
X00918968Y01596449D01*
X00908116Y01596449D01*
X00891839Y01612726D01*
X00880988Y01601874D02*
X00913542Y01634429D01*
X00929820Y01618152D01*
X00929820Y01607300D01*
X00884441Y01581307D02*
X00884441Y01573634D01*
X00853748Y01542941D01*
X00853748Y01535268D01*
X00838401Y01542941D02*
X00830728Y01535268D01*
X00815382Y01535268D01*
X00807709Y01542941D01*
X00807709Y01573634D01*
X00815382Y01581307D01*
X00830728Y01581307D01*
X00838401Y01573634D01*
X00853748Y01581307D02*
X00884441Y01581307D01*
X00982311Y01705346D02*
X00997657Y01705346D01*
X01005331Y01713020D01*
X01020677Y01697673D02*
X01051370Y01697673D01*
X01066716Y01713020D02*
X01066716Y01743712D01*
X01074389Y01751386D01*
X01089736Y01751386D01*
X01097409Y01743712D01*
X01112756Y01736039D02*
X01128102Y01751386D01*
X01143448Y01736039D01*
X01143448Y01705346D01*
X01158795Y01705346D02*
X01158795Y01751386D01*
X01181814Y01751386D01*
X01189488Y01743712D01*
X01189488Y01728366D01*
X01181814Y01720693D01*
X01158795Y01720693D01*
X01143448Y01728366D02*
X01112756Y01728366D01*
X01112756Y01736039D02*
X01112756Y01705346D01*
X01097409Y01713020D02*
X01089736Y01705346D01*
X01074389Y01705346D01*
X01066716Y01713020D01*
X01005331Y01743712D02*
X00997657Y01751386D01*
X00982311Y01751386D01*
X00974638Y01743712D01*
X00974638Y01713020D01*
X00982311Y01705346D01*
X01342748Y01724831D02*
X01350421Y01717157D01*
X01365768Y01717157D01*
X01373441Y01724831D01*
X01388787Y01717157D02*
X01411807Y01717157D01*
X01419480Y01724831D01*
X01419480Y01732504D01*
X01411807Y01740177D01*
X01388787Y01740177D01*
X01373441Y01755523D02*
X01365768Y01763197D01*
X01350421Y01763197D01*
X01342748Y01755523D01*
X01342748Y01724831D01*
X01388787Y01717157D02*
X01388787Y01763197D01*
X01411807Y01763197D01*
X01419480Y01755523D01*
X01419480Y01747850D01*
X01411807Y01740177D01*
X01434827Y01724831D02*
X01442500Y01717157D01*
X01457846Y01717157D01*
X01465519Y01724831D01*
X01465519Y01763197D01*
X01480866Y01763197D02*
X01511559Y01763197D01*
X01496212Y01740177D02*
X01480866Y01740177D01*
X01480866Y01717157D02*
X01480866Y01763197D01*
X01434827Y01763197D02*
X01434827Y01724831D01*
X01496090Y01523039D02*
X01488417Y01515366D01*
X01488417Y01484673D01*
X01496090Y01477000D01*
X01511437Y01477000D01*
X01519110Y01484673D01*
X01534457Y01477000D02*
X01534457Y01507693D01*
X01549803Y01523039D01*
X01565149Y01507693D01*
X01565149Y01477000D01*
X01580496Y01477000D02*
X01603515Y01477000D01*
X01611189Y01484673D01*
X01611189Y01515366D01*
X01603515Y01523039D01*
X01580496Y01523039D01*
X01580496Y01477000D01*
X01565149Y01500020D02*
X01534457Y01500020D01*
X01519110Y01515366D02*
X01511437Y01523039D01*
X01496090Y01523039D01*
X01626535Y01523039D02*
X01626535Y01477000D01*
X01649555Y01477000D01*
X01657228Y01484673D01*
X01657228Y01515366D01*
X01649555Y01523039D01*
X01626535Y01523039D01*
X01672574Y01523039D02*
X01695594Y01523039D01*
X01703267Y01515366D01*
X01703267Y01507693D01*
X01695594Y01500020D01*
X01672574Y01500020D01*
X01672574Y01523039D02*
X01672574Y01477000D01*
X01695594Y01477000D01*
X01703267Y01484673D01*
X01703267Y01492346D01*
X01695594Y01500020D01*
X01718614Y01484673D02*
X01726287Y01477000D01*
X01741633Y01477000D01*
X01749306Y01484673D01*
X01749306Y01523039D01*
X01764653Y01523039D02*
X01795346Y01523039D01*
X01779999Y01500020D02*
X01764653Y01500020D01*
X01764653Y01523039D02*
X01764653Y01477000D01*
X01718614Y01484673D02*
X01718614Y01523039D01*
X00836779Y01126004D02*
X00806086Y01126004D01*
X00829106Y01149023D01*
X00829106Y01102984D01*
X00790740Y01102984D02*
X00760047Y01102984D01*
X00744701Y01102984D02*
X00729354Y01118331D01*
X00737027Y01118331D02*
X00714008Y01118331D01*
X00714008Y01102984D02*
X00714008Y01149023D01*
X00737027Y01149023D01*
X00744701Y01141350D01*
X00744701Y01126004D01*
X00737027Y01118331D01*
X00760047Y01133677D02*
X00775393Y01149023D01*
X00775393Y01102984D01*
X00612764Y00782583D02*
X00566725Y00782583D01*
X00380480Y01440851D02*
X00334441Y01440851D01*
X00334441Y01463870D01*
X00342114Y01471543D01*
X00357461Y01471543D01*
X00365134Y01463870D01*
X00365134Y01440851D01*
X00365134Y01456197D02*
X00380480Y01471543D01*
X00380480Y01486890D02*
X00380480Y01517583D01*
X00380480Y01502236D02*
X00334441Y01502236D01*
X00349788Y01486890D01*
X00357461Y01532929D02*
X00334441Y01532929D01*
X00334441Y01563622D01*
X00349788Y01555949D02*
X00357461Y01563622D01*
X00372807Y01563622D01*
X00380480Y01555949D01*
X00380480Y01540602D01*
X00372807Y01532929D01*
X00357461Y01532929D02*
X00349788Y01548275D01*
X00349788Y01555949D01*
X00320866Y01639764D02*
X00387795Y01639764D01*
X00387795Y01683071D02*
X00320866Y01683071D01*
X00320736Y01702000D02*
X00297717Y01702000D01*
X00297717Y01748039D01*
X00320736Y01748039D01*
X00328409Y01740366D01*
X00328409Y01709673D01*
X00320736Y01702000D01*
X00343756Y01702000D02*
X00374449Y01732693D01*
X00374449Y01740366D01*
X00366775Y01748039D01*
X00351429Y01748039D01*
X00343756Y01740366D01*
X00343756Y01702000D02*
X00374449Y01702000D01*
X00414402Y01708295D02*
X00422075Y01700622D01*
X00437421Y01700622D01*
X00445094Y01708295D01*
X00460441Y01700622D02*
X00491134Y01700622D01*
X00475787Y01700622D02*
X00475787Y01746661D01*
X00460441Y01731315D01*
X00445094Y01738988D02*
X00437421Y01746661D01*
X00422075Y01746661D01*
X00414402Y01738988D01*
X00414402Y01708295D01*
X00518977Y01795500D02*
X00526650Y01787827D01*
X00541996Y01787827D01*
X00549669Y01795500D01*
X00565016Y01787827D02*
X00595709Y01818520D01*
X00595709Y01826193D01*
X00588035Y01833866D01*
X00572689Y01833866D01*
X00565016Y01826193D01*
X00549669Y01826193D02*
X00541996Y01833866D01*
X00526650Y01833866D01*
X00518977Y01826193D01*
X00518977Y01795500D01*
X00565016Y01787827D02*
X00595709Y01787827D01*
X00626378Y01600000D02*
X00563386Y01600000D01*
X00563386Y01481890D01*
X00626378Y01481890D01*
X00626378Y01600000D01*
X00207252Y01707118D02*
X00161213Y01737811D01*
X00168886Y01753157D02*
X00161213Y01760830D01*
X00161213Y01776177D01*
X00168886Y01783850D01*
X00176559Y01783850D01*
X00207252Y01753157D01*
X00207252Y01783850D01*
X00207252Y01737811D02*
X00161213Y01707118D01*
X01575973Y00283236D02*
X01583646Y00283236D01*
X01591319Y00275563D01*
X01591319Y00260216D01*
X01583646Y00252543D01*
X01575973Y00252543D01*
X01568299Y00260216D01*
X01568299Y00275563D01*
X01575973Y00283236D01*
X01591319Y00275563D02*
X01598992Y00283236D01*
X01606665Y00283236D01*
X01614339Y00275563D01*
X01614339Y00260216D01*
X01606665Y00252543D01*
X01598992Y00252543D01*
X01591319Y00260216D01*
X01614339Y00237197D02*
X01614339Y00206504D01*
X01614339Y00221850D02*
X01568299Y00221850D01*
X01583646Y00206504D01*
X01575973Y00191157D02*
X01591319Y00191157D01*
X01598992Y00183484D01*
X01598992Y00160465D01*
X01598992Y00175811D02*
X01614339Y00191157D01*
X01614339Y00160465D02*
X01568299Y00160465D01*
X01568299Y00183484D01*
X01575973Y00191157D01*
D12*
X00368110Y01661417D03*
D13*
X01740945Y01312480D02*
X01740945Y01302480D01*
D14*
X01692445Y01287032D02*
X01647406Y01287032D01*
X01647406Y01272020D02*
X01647406Y01302045D01*
X01654913Y01318059D02*
X01684938Y01318059D01*
X01692445Y01325565D01*
X01692445Y01340578D01*
X01684938Y01348084D01*
X01654913Y01348084D02*
X01647406Y01340578D01*
X01647406Y01325565D01*
X01654913Y01318059D01*
X01647406Y01256006D02*
X01692445Y01256006D01*
X01647406Y01225980D01*
X01692445Y01225980D01*
X01454203Y01805610D02*
X01424177Y01805610D01*
X01439190Y01805610D02*
X01439190Y01850649D01*
X01424177Y01835636D01*
X01408163Y01820623D02*
X01408163Y01850649D01*
X01378138Y01850649D02*
X01378138Y01820623D01*
X01393151Y01805610D01*
X01408163Y01820623D01*
X01362124Y01820623D02*
X01354618Y01828129D01*
X01339605Y01828129D01*
X01332099Y01835636D01*
X01332099Y01843142D01*
X01339605Y01850649D01*
X01354618Y01850649D01*
X01362124Y01843142D01*
X01362124Y01820623D02*
X01362124Y01813117D01*
X01354618Y01805610D01*
X01339605Y01805610D01*
X01332099Y01813117D01*
X01287471Y01895059D02*
X01257445Y01895059D01*
X01272458Y01895059D02*
X01272458Y01940097D01*
X01257445Y01925085D01*
X00887471Y01760097D02*
X00857445Y01760097D01*
X00857445Y01737578D01*
X00872458Y01745085D01*
X00879964Y01745085D01*
X00887471Y01737578D01*
X00887471Y01722565D01*
X00879964Y01715059D01*
X00864951Y01715059D01*
X00857445Y01722565D01*
X00232614Y01799307D02*
X00232614Y01287307D01*
X00232114Y01284807D02*
X-00318386Y01284807D01*
X-00318386Y01288307D02*
X-00318386Y01798307D01*
X-00318386Y01801807D02*
X00232114Y01801807D01*
X-00013386Y01743307D02*
X-00263386Y01718307D01*
X-00263386Y01593307D01*
X-00013386Y01568307D01*
X-00013386Y01518307D02*
X-00263386Y01493307D01*
X-00263386Y01368307D01*
X-00013386Y01343307D01*
X00202382Y00530460D02*
X00224901Y00530460D01*
X00232407Y00522953D01*
X00232407Y00492928D01*
X00224901Y00485421D01*
X00202382Y00485421D01*
X00202382Y00530460D01*
X00248421Y00530460D02*
X00263434Y00530460D01*
X00255928Y00530460D02*
X00255928Y00485421D01*
X00263434Y00485421D02*
X00248421Y00485421D01*
X00279114Y00492928D02*
X00286620Y00485421D01*
X00301633Y00485421D01*
X00309140Y00492928D01*
X00309140Y00500434D01*
X00301633Y00507940D01*
X00286620Y00507940D01*
X00279114Y00515447D01*
X00279114Y00522953D01*
X00286620Y00530460D01*
X00301633Y00530460D01*
X00309140Y00522953D01*
X00325153Y00515447D02*
X00340166Y00530460D01*
X00340166Y00485421D01*
X00325153Y00485421D02*
X00355179Y00485421D01*
X00698445Y00493295D02*
X00720964Y00493295D01*
X00728470Y00500802D01*
X00728470Y00530827D01*
X00720964Y00538334D01*
X00698445Y00538334D01*
X00698445Y00493295D01*
X00744484Y00493295D02*
X00759497Y00493295D01*
X00751991Y00493295D02*
X00751991Y00538334D01*
X00759497Y00538334D02*
X00744484Y00538334D01*
X00775177Y00530827D02*
X00775177Y00523321D01*
X00782683Y00515814D01*
X00797696Y00515814D01*
X00805203Y00508308D01*
X00805203Y00500802D01*
X00797696Y00493295D01*
X00782683Y00493295D01*
X00775177Y00500802D01*
X00821216Y00493295D02*
X00851242Y00523321D01*
X00851242Y00530827D01*
X00843735Y00538334D01*
X00828723Y00538334D01*
X00821216Y00530827D01*
X00805203Y00530827D02*
X00797696Y00538334D01*
X00782683Y00538334D01*
X00775177Y00530827D01*
X00821216Y00493295D02*
X00851242Y00493295D01*
X01206319Y00497232D02*
X01228838Y00497232D01*
X01236344Y00504739D01*
X01236344Y00534764D01*
X01228838Y00542271D01*
X01206319Y00542271D01*
X01206319Y00497232D01*
X01252358Y00497232D02*
X01267371Y00497232D01*
X01259865Y00497232D02*
X01259865Y00542271D01*
X01267371Y00542271D02*
X01252358Y00542271D01*
X01283051Y00534764D02*
X01283051Y00527258D01*
X01290557Y00519751D01*
X01305570Y00519751D01*
X01313077Y00512245D01*
X01313077Y00504739D01*
X01305570Y00497232D01*
X01290557Y00497232D01*
X01283051Y00504739D01*
X01283051Y00534764D02*
X01290557Y00542271D01*
X01305570Y00542271D01*
X01313077Y00534764D01*
X01329090Y00534764D02*
X01336597Y00542271D01*
X01351609Y00542271D01*
X01359116Y00534764D01*
X01359116Y00527258D01*
X01351609Y00519751D01*
X01359116Y00512245D01*
X01359116Y00504739D01*
X01351609Y00497232D01*
X01336597Y00497232D01*
X01329090Y00504739D01*
X01344103Y00519751D02*
X01351609Y00519751D01*
D15*
X01530315Y00780709D02*
X01888583Y00780709D01*
X01888583Y00123228D01*
X01530315Y00123228D01*
X01530315Y00780709D01*
X01809843Y00780709D02*
X01809843Y00123228D01*
X01888583Y00123228D02*
X01967323Y00123228D01*
X01967323Y00166535D01*
X01892520Y00166535D01*
X01892520Y00318110D02*
X02132677Y00318110D01*
X02144488Y00337795D01*
X02144488Y00566142D01*
X02132677Y00585827D01*
X01892520Y00585827D01*
X01900394Y00581890D02*
X01921063Y00322047D01*
X01940748Y00322047D02*
X01920079Y00581890D01*
X01939764Y00581890D02*
X01960433Y00322047D01*
X01980118Y00322047D02*
X01959449Y00581890D01*
X01979134Y00581890D02*
X01999803Y00322047D01*
X02019488Y00322047D02*
X01998819Y00581890D01*
X02018504Y00581890D02*
X02039173Y00322047D01*
X02058858Y00322047D02*
X02038189Y00581890D01*
X02057874Y00581890D02*
X02078543Y00322047D01*
X02098228Y00322047D02*
X02077559Y00581890D01*
X02097244Y00581890D02*
X02117913Y00322047D01*
X02137598Y00330906D02*
X02116929Y00581890D01*
X02144488Y00566142D02*
X02282283Y00566142D01*
X02282283Y00337795D01*
X02144488Y00337795D01*
X01134558Y01205719D02*
X01279320Y01350482D01*
X00995363Y01634438D01*
X00850601Y01489676D02*
X01134558Y01205719D01*
D16*
X00617882Y01437253D02*
X00595863Y01437253D01*
X00617882Y01451932D01*
X00595863Y01451932D01*
X00599533Y01459352D02*
X00614212Y01459352D01*
X00617882Y01463021D01*
X00617882Y01470361D01*
X00614212Y01474031D01*
X00610542Y01481450D02*
X00610542Y01492460D01*
X00606873Y01496129D01*
X00599533Y01496129D01*
X00595863Y01492460D01*
X00595863Y01481450D01*
X00617882Y01481450D01*
X00599533Y01474031D02*
X00595863Y01470361D01*
X00595863Y01463021D01*
X00599533Y01459352D01*
X00603203Y01503549D02*
X00595863Y01510889D01*
X00617882Y01510889D01*
X00617882Y01518228D02*
X00617882Y01503549D01*
X00614212Y01525648D02*
X00606873Y01525648D01*
X00606873Y01536657D01*
X00610542Y01540327D01*
X00614212Y01540327D01*
X00617882Y01536657D01*
X00617882Y01529318D01*
X00614212Y01525648D01*
X00606873Y01525648D02*
X00599533Y01532987D01*
X00595863Y01540327D01*
X00606873Y01547747D02*
X00606873Y01562426D01*
X00614212Y01569845D02*
X00599533Y01569845D01*
X00595863Y01573515D01*
X00595863Y01580855D01*
X00599533Y01584525D01*
X00614212Y01584525D02*
X00617882Y01580855D01*
X00617882Y01573515D01*
X00614212Y01569845D01*
X00617882Y01558756D02*
X00595863Y01558756D01*
X00606873Y01547747D01*
X00739967Y01656331D02*
X00739967Y01678349D01*
X00750976Y01678349D01*
X00754646Y01674680D01*
X00754646Y01667340D01*
X00750976Y01663670D01*
X00739967Y01663670D01*
X00747306Y01663670D02*
X00754646Y01656331D01*
X00762065Y01660000D02*
X00765735Y01656331D01*
X00773075Y01656331D01*
X00776745Y01660000D01*
X00784164Y01656331D02*
X00798843Y01656331D01*
X00806263Y01656331D02*
X00806263Y01678349D01*
X00817272Y01678349D01*
X00820942Y01674680D01*
X00820942Y01667340D01*
X00817272Y01663670D01*
X00806263Y01663670D01*
X00813603Y01663670D02*
X00820942Y01656331D01*
X00784164Y01656331D02*
X00784164Y01678349D01*
X00776745Y01674680D02*
X00773075Y01678349D01*
X00765735Y01678349D01*
X00762065Y01674680D01*
X00762065Y01660000D01*
D17*
X00850984Y01777559D02*
X00825984Y01802559D01*
X00825984Y01852559D01*
X00850984Y01877559D01*
X00900984Y01877559D01*
X00925984Y01852559D01*
X00950984Y01877559D01*
X01000984Y01877559D01*
X01025984Y01852559D01*
X01050984Y01877559D01*
X01100984Y01877559D01*
X01125984Y01852559D01*
X01150984Y01877559D01*
X01200984Y01877559D01*
X01225984Y01852559D01*
X01250984Y01877559D01*
X01300984Y01877559D01*
X01325984Y01852559D01*
X01325984Y01802559D01*
X01300984Y01777559D01*
X01250984Y01777559D01*
X01225984Y01802559D01*
X01200984Y01777559D01*
X01150984Y01777559D01*
X01125984Y01802559D01*
X01100984Y01777559D01*
X01050984Y01777559D01*
X01025984Y01802559D01*
X01000984Y01777559D01*
X00950984Y01777559D01*
X00925984Y01802559D01*
X00900984Y01777559D01*
X00850984Y01777559D01*
X00985157Y00783819D02*
X00495157Y00783819D01*
X00495157Y00113819D01*
X00985157Y00113819D01*
X00985157Y00783819D01*
X00995157Y00783819D02*
X00995157Y00113819D01*
X01485157Y00113819D01*
X01485157Y00783819D01*
X00995157Y00783819D01*
X00481220Y00779882D02*
X-00008780Y00779882D01*
X-00008780Y00109882D01*
X00481220Y00109882D01*
X00481220Y00779882D01*
D18*
X00575197Y01583268D03*
M02*
