G75*
%MOIN*%
%OFA0B0*%
%FSLAX26Y26*%
%IPPOS*%
%LPD*%
%AMOC8*
5,1,8,0,0,1.08239X$1,22.5*
%
%ADD10OC8,0.052000*%
%ADD11C,0.086000*%
%ADD12C,0.060000*%
%ADD13C,0.131000*%
%ADD14C,0.052000*%
%ADD15C,0.039622*%
%ADD16C,0.016000*%
%ADD17C,0.035685*%
%ADD18C,0.012000*%
%ADD19C,0.040000*%
%ADD20C,0.024000*%
D10*
X01740945Y01257480D03*
X01740945Y01357480D03*
D11*
X01742913Y00648819D03*
X01742913Y00451969D03*
X01742913Y00255118D03*
D12*
X01275984Y01797559D02*
X01275984Y01857559D01*
X01175984Y01857559D02*
X01175984Y01797559D01*
X01075984Y01797559D02*
X01075984Y01857559D01*
X00975984Y01857559D02*
X00975984Y01797559D01*
X00875984Y01797559D02*
X00875984Y01857559D01*
D13*
X00086614Y01801807D03*
X00086614Y01284807D03*
D14*
X00036220Y00170882D02*
X00036220Y00118882D01*
X00136220Y00118882D02*
X00136220Y00170882D01*
X00236220Y00170882D02*
X00236220Y00118882D01*
X00336220Y00118882D02*
X00336220Y00170882D01*
X00436220Y00170882D02*
X00436220Y00118882D01*
X00540157Y00122819D02*
X00540157Y00174819D01*
X00640157Y00174819D02*
X00640157Y00122819D01*
X00740157Y00122819D02*
X00740157Y00174819D01*
X00840157Y00174819D02*
X00840157Y00122819D01*
X00940157Y00122819D02*
X00940157Y00174819D01*
X01040157Y00174819D02*
X01040157Y00122819D01*
X01140157Y00122819D02*
X01140157Y00174819D01*
X01240157Y00174819D02*
X01240157Y00122819D01*
X01340157Y00122819D02*
X01340157Y00174819D01*
X01440157Y00174819D02*
X01440157Y00122819D01*
X01440157Y00722819D02*
X01440157Y00774819D01*
X01340157Y00774819D02*
X01340157Y00722819D01*
X01240157Y00722819D02*
X01240157Y00774819D01*
X01140157Y00774819D02*
X01140157Y00722819D01*
X01040157Y00722819D02*
X01040157Y00774819D01*
X00940157Y00774819D02*
X00940157Y00722819D01*
X00840157Y00722819D02*
X00840157Y00774819D01*
X00740157Y00774819D02*
X00740157Y00722819D01*
X00640157Y00722819D02*
X00640157Y00774819D01*
X00540157Y00774819D02*
X00540157Y00722819D01*
X00436220Y00718882D02*
X00436220Y00770882D01*
X00336220Y00770882D02*
X00336220Y00718882D01*
X00236220Y00718882D02*
X00236220Y00770882D01*
X00136220Y00770882D02*
X00136220Y00718882D01*
X00036220Y00718882D02*
X00036220Y00770882D01*
D15*
X00200787Y01015748D03*
X00314961Y01425197D03*
X00496063Y01543307D03*
X00704724Y01452756D03*
X01200787Y01027559D03*
D16*
X00842520Y00712598D02*
X00838583Y00708661D01*
X00842520Y00708661D02*
X00842520Y00704724D01*
X00338583Y00708661D02*
X00330709Y00716535D01*
X00330709Y00751969D01*
X00338583Y00748031D02*
X00338583Y00708661D01*
D17*
X00543307Y00535433D03*
X00645669Y00574803D03*
X00842520Y00618110D03*
X01043307Y00535433D03*
X01141732Y00578740D03*
X01338583Y00622047D03*
X01326772Y01094488D03*
X01389764Y01224409D03*
X01326772Y01275591D03*
X01177165Y01173228D03*
X01145669Y01204724D03*
X00858268Y01098425D03*
X00712598Y01181102D03*
X00700787Y01027559D03*
X00381890Y01149606D03*
X00598425Y01555118D03*
X00755906Y01712598D03*
X00937008Y01527559D03*
X00984252Y01527559D03*
X01051181Y01696850D03*
X01212598Y01649606D03*
X01381890Y01551181D03*
X01523622Y01224409D03*
X01342520Y00043307D03*
X01141732Y00011811D03*
X01047244Y-00027559D03*
X00842520Y00043307D03*
X00645669Y00003937D03*
X00547244Y-00027559D03*
D18*
X00547244Y00145669D01*
X00543307Y00149606D01*
X00543307Y-00027559D01*
X00547244Y-00031496D01*
X00645669Y00003937D02*
X00645669Y00145669D01*
X00842520Y00141732D02*
X00842520Y00051181D01*
X00850394Y00043307D01*
X00854331Y00043307D01*
X00846457Y00035433D02*
X00842520Y00039370D01*
X00838583Y00043307D01*
X00838583Y00051181D01*
X00846457Y00059055D01*
X00842520Y00051181D02*
X00842520Y00043307D01*
X00838583Y00039370D01*
X00842520Y00039370D01*
X00842520Y00141732D02*
X00842520Y00149606D01*
X01043307Y00153543D02*
X01043307Y-00023622D01*
X01051181Y-00031496D01*
X01047244Y-00035433D02*
X01047244Y00149606D01*
X01043307Y00153543D01*
X01141732Y00145669D02*
X01145669Y00149606D01*
X01145669Y00011811D01*
X01141732Y00007874D01*
X01141732Y00145669D01*
X01141732Y00007874D02*
X01141732Y00003937D01*
X01330709Y00043307D02*
X01334646Y00047244D01*
X01342520Y00055118D01*
X01354331Y00043307D01*
X01342520Y00043307D02*
X01342520Y00047244D01*
X01334646Y00047244D01*
X01330709Y00043307D02*
X01330709Y00051181D01*
X01342520Y00062992D01*
X01342520Y00055118D01*
X01342520Y00047244D01*
X01342520Y00062992D02*
X01342520Y00137795D01*
X01610236Y00381890D02*
X01744094Y00248031D01*
X01610236Y00381890D02*
X01610236Y00728346D01*
X01303150Y01035433D01*
X01200787Y01035433D01*
X01208661Y01027559D02*
X01204724Y01023622D01*
X00696850Y01023622D01*
X00700787Y01019685D02*
X00704724Y01015748D01*
X00700787Y01019685D02*
X00700787Y01027559D01*
X00645669Y01027559D02*
X00551181Y01114173D01*
X00220472Y01114173D01*
X00204724Y01098425D01*
X00204724Y01015748D01*
X00200787Y01015748D02*
X00200787Y01307087D01*
X00314961Y01421260D01*
X00314961Y01417323D01*
X00358268Y01374016D01*
X00625984Y01374016D01*
X00704724Y01452756D01*
X00704724Y01448819D02*
X00708661Y01448819D01*
X00763780Y01425197D02*
X00708661Y01370079D01*
X00708661Y01185039D01*
X00720472Y01149606D02*
X00377953Y01149606D01*
X00500000Y01374016D02*
X00500000Y01393701D01*
X00500000Y01539370D01*
X00318898Y01425197D02*
X00314961Y01421260D01*
X00720472Y01149606D02*
X01090551Y01149606D01*
X01145669Y01204724D01*
X01177165Y01173228D02*
X01133858Y01129921D01*
X00893701Y01129921D01*
X00858268Y01094488D01*
X00866142Y01102362D02*
X00889764Y01129921D01*
X00893701Y01129921D01*
X00763780Y01425197D02*
X00763780Y01700787D01*
X00751969Y01712598D01*
X00940945Y01732283D02*
X00976378Y01771654D01*
X00976378Y01830709D01*
X01070866Y01822835D02*
X01070866Y01814961D01*
X01074803Y01818898D01*
X01070866Y01822835D02*
X01078740Y01830709D01*
X01070866Y01814961D02*
X01070866Y01787402D01*
X00984252Y01700787D01*
X00984252Y01527559D01*
X00937008Y01527559D02*
X00940945Y01732283D01*
X01051181Y01700787D02*
X01059055Y01692913D01*
X01051181Y01696850D02*
X01074803Y01720472D01*
X01212598Y01720472D01*
X01212598Y01759843D01*
X01275591Y01822835D01*
X01279528Y01826772D01*
X01271654Y01720472D02*
X01389764Y01602362D01*
X01389764Y01559055D01*
X01381890Y01551181D01*
X01385827Y01551181D01*
X01070866Y01775591D02*
X01070866Y01787402D01*
X01326772Y01275591D02*
X01326772Y01185039D01*
X01326772Y01094488D01*
X01330709Y01098425D02*
X01326772Y01185039D01*
X01393701Y01224409D02*
X01527559Y01224409D01*
X01437008Y00751969D02*
X01437008Y00704724D01*
X01433071Y00700787D01*
X01440945Y00708661D02*
X01440945Y00744094D01*
X01440945Y00748031D01*
X01437008Y00751969D01*
X01440945Y00744094D02*
X01448819Y00736220D01*
X01448819Y00708661D01*
X01385827Y00649606D01*
X00460630Y00649606D01*
X00433071Y00677165D01*
X00433071Y00736220D01*
X00334646Y00736220D02*
X00334646Y00712598D01*
X00429134Y00618110D01*
X00842520Y00618110D01*
X01342520Y00618110D01*
X01346457Y00622047D01*
X01141732Y00578740D02*
X01137795Y00574803D01*
X00645669Y00574803D01*
X00259843Y00574803D01*
X00137795Y00696850D01*
X00137795Y00740157D01*
X00031496Y00744094D02*
X00031496Y00696850D01*
X00192913Y00535433D01*
X00543307Y00535433D01*
X01043307Y00535433D01*
X01051181Y00527559D01*
X00913386Y00653543D02*
X00940945Y00681102D01*
X00940945Y00700787D01*
X00940945Y00748031D01*
D19*
X00700787Y01027559D02*
X00645669Y01027559D01*
X00633858Y01039370D01*
X00551181Y01102362D01*
X00216535Y01102362D01*
X00204724Y01015748D02*
X00204724Y01311024D01*
X00314961Y01421260D01*
X00322835Y01421260D01*
X00358268Y01385827D01*
X00618110Y01385827D01*
X00622047Y01385827D02*
X00629921Y01385827D01*
X00700787Y01456693D01*
X00500000Y01393701D02*
X00500000Y01543307D01*
X01047244Y01700787D02*
X01062992Y01716535D01*
X01066929Y01716535D01*
X01051181Y01700787D01*
X01066929Y01716535D01*
X01051181Y01700787D01*
X01066929Y01716535D01*
X01051181Y01700787D01*
X01066929Y01716535D01*
X01216535Y01716535D01*
X01224409Y01716535D02*
X01224409Y01763780D01*
X01275591Y01814961D01*
X01275591Y01822835D01*
X01263780Y01716535D02*
X01224409Y01716535D01*
X01263780Y01716535D02*
X01381890Y01598425D01*
X01381890Y01547244D01*
X01385827Y01551181D02*
X01551181Y01551181D01*
X01744094Y01358268D01*
X01748031Y01354331D02*
X01795276Y01354331D01*
X01842520Y01307087D01*
X01842520Y00346457D01*
X01751969Y00255906D01*
X01744094Y00248031D02*
X01606299Y00385827D01*
X01606299Y00720472D01*
X01311024Y01015748D01*
X01311024Y01023622D01*
X01307087Y01027559D01*
X01200787Y01027559D01*
X00700787Y01027559D01*
X01051181Y01696850D02*
X01066929Y01712598D01*
X01051181Y01696850D01*
D20*
X00625984Y01500000D02*
X00598425Y01523622D01*
X00598425Y01555118D01*
M02*
